<svg xmlns="http://www.w3.org/2000/svg" viewBox="0 0 1000 393.645" role="img" aria-labelledby="logo-title" data-font-family="Outfit">
<title id="logo-title">KOHI cafe menu</title>
<metadata>Outfit by Rodrigo Fuenzalida, SIL Open Font License 1.1. Glyph outlines from the official Google Fonts Outfit variable font. KOHI: weight 900. Captions: weight 400. No macron.</metadata>
<g aria-label="KOHI" data-font-weight="900" fill="#dc4235" transform="translate(-23.572,290.052) scale(0.39952058, -0.39952058)"><path transform="translate(0,0)" d="M491 0 242 371 479 712H720L446 342V406L731 0ZM59 0V712H259V0Z"/><path transform="translate(737,0)" d="M411 -14Q327 -14 256.5 14.0Q186 42 133.5 92.0Q81 142 52.0 210.0Q23 278 23 357Q23 437 51.5 504.0Q80 571 132.0 621.0Q184 671 254.5 698.5Q325 726 409 726Q493 726 563.5 698.5Q634 671 686.0 621.0Q738 571 766.5 503.5Q795 436 795 356Q795 277 766.5 209.5Q738 142 686.0 91.5Q634 41 564.0 13.5Q494 -14 411 -14ZM409 162Q465 162 506.0 186.0Q547 210 569.0 254.0Q591 298 591 357Q591 401 578.5 436.5Q566 472 542.0 497.5Q518 523 484.5 536.5Q451 550 409 550Q353 550 312.0 526.5Q271 503 249.0 459.5Q227 416 227 357Q227 312 239.5 276.0Q252 240 276.0 214.5Q300 189 333.5 175.5Q367 162 409 162Z"/><path transform="translate(1555,0)" d="M59 0V712H259V0ZM489 0V712H689V0ZM168 280V446H567V280Z"/><path transform="translate(2303,0)" d="M59 0V712H259V0Z"/></g>
<g aria-label="cafe" data-font-weight="400" fill="#111111" transform="translate(-2.671,392.882) scale(0.07632027,-0.07632027)"><path transform="translate(0,0)" d="M283.25 -10Q213.25 -10 156.75 22.75Q100.25 55.5 67.625 112.0Q35 168.5 35 238Q35 308 67.625 363.875Q100.25 419.75 156.75 452.375Q213.25 485 283.25 485Q337.75 485 385.0 464.25Q432.25 443.5 465.5 405.25L406.25 345.25Q383.75 371.25 352.125 384.75Q320.5 398.25 283.25 398.25Q238 398.25 202.75 377.5Q167.5 356.75 147.625 321.0Q127.75 285.25 127.75 238Q127.75 191.25 147.625 154.875Q167.5 118.5 202.75 97.625Q238 76.75 283.25 76.75Q320.75 76.75 352.5 90.25Q384.25 103.75 407 130L466.25 70Q432.75 31.5 385.25 10.75Q337.75 -10 283.25 -10Z"/><path transform="translate(489,0)" d="M268.25 -10Q202.5 -10 149.75 22.625Q97 55.25 66.375 111.125Q35.75 167 35.75 236.5Q35.75 306.75 66.375 362.75Q97 418.75 149.625 451.875Q202.25 485 267.75 485Q322.25 485 364.75 462.5Q407.25 440 433.125 400.25Q459 360.5 461.75 309V166.25Q458.75 114.75 433.25 74.875Q407.75 35 365.125 12.5Q322.5 -10 268.25 -10ZM282.75 75.25Q350 75.25 390.875 120.375Q431.75 165.5 431.75 237.25Q431.75 285.5 413.125 322.125Q394.5 358.75 360.875 379.25Q327.25 399.75 282.25 399.75Q237.25 399.75 202.75 379.0Q168.25 358.25 148.375 321.625Q128.5 285 128.5 237.5Q128.5 190 148.375 153.375Q168.25 116.75 203.0 96.0Q237.75 75.25 282.75 75.25ZM426.25 0V127.5L442.75 243.75L426.25 358.5V475H516.5V0Z"/><path transform="translate(1071,0)" d="M133.5 0V546.25Q133.5 598.5 156.5 638.375Q179.5 678.25 220.375 701.0Q261.25 723.75 314.5 723.75Q355.5 723.75 385.5 709.625Q415.5 695.5 440.75 669.25L382.25 610.75Q368.5 624.75 352.625 632.125Q336.75 639.5 314.25 639.5Q271 639.5 247.375 614.875Q223.75 590.25 223.75 546V0ZM16.75 393.25V475H375V393.25Z"/><path transform="translate(1470,0)" d="M285.75 -10Q214.5 -10 157.75 22.25Q101 54.5 68.0 110.875Q35 167.25 35 237.75Q35 308 67.375 363.875Q99.75 419.75 155.5 452.375Q211.25 485 279.75 485Q345.5 485 396.0 454.875Q446.5 424.75 475.375 372.0Q504.25 319.25 504.25 251.5Q504.25 241.5 503.0 230.0Q501.75 218.5 499 204H98.25V278.75H451.25L418.25 250Q417.75 297.75 401.0 331.5Q384.25 365.25 353.25 383.625Q322.25 402 278 402Q231.5 402 196.875 381.875Q162.25 361.75 143.125 325.75Q124 289.75 124 240.5Q124 190.75 144.125 153.25Q164.25 115.75 201.0 95.125Q237.75 74.5 286 74.5Q325.75 74.5 359.5 88.75Q393.25 103 416.75 130.75L474.5 72.25Q440.5 32.25 391.125 11.125Q341.75 -10 285.75 -10Z"/></g>
<g aria-label="menu" data-font-weight="400" fill="#111111" transform="translate(816.831,392.882) scale(0.07632027,-0.07632027)"><path transform="translate(0,0)" d="M65.75 0V475H156V0ZM387 0V287Q387 340 354.5 370.375Q322 400.75 273.25 400.75Q240.25 400.75 213.875 387.0Q187.5 373.25 171.75 348.0Q156 322.75 156 287.5L118.5 305.75Q118.5 360.25 142.375 400.25Q166.25 440.25 207.125 462.625Q248 485 298.75 485Q349.25 485 389.625 463.0Q430 441 453.625 401.0Q477.25 361 477.25 305.5V0ZM708.25 0V287Q708.25 340 675.75 370.375Q643.25 400.75 594.5 400.75Q562.25 400.75 535.5 387.0Q508.75 373.25 493.0 348.0Q477.25 322.75 477.25 287.5L425.5 305.75Q429.25 360.5 455.5 400.375Q481.75 440.25 523.75 462.625Q565.75 485 616.25 485Q667.5 485 708.625 463.0Q749.75 441 774.125 400.875Q798.5 360.75 798.5 305.25V0Z"/><path transform="translate(855,0)" d="M285.75 -10Q214.5 -10 157.75 22.25Q101 54.5 68.0 110.875Q35 167.25 35 237.75Q35 308 67.375 363.875Q99.75 419.75 155.5 452.375Q211.25 485 279.75 485Q345.5 485 396.0 454.875Q446.5 424.75 475.375 372.0Q504.25 319.25 504.25 251.5Q504.25 241.5 503.0 230.0Q501.75 218.5 499 204H98.25V278.75H451.25L418.25 250Q417.75 297.75 401.0 331.5Q384.25 365.25 353.25 383.625Q322.25 402 278 402Q231.5 402 196.875 381.875Q162.25 361.75 143.125 325.75Q124 289.75 124 240.5Q124 190.75 144.125 153.25Q164.25 115.75 201.0 95.125Q237.75 74.5 286 74.5Q325.75 74.5 359.5 88.75Q393.25 103 416.75 130.75L474.5 72.25Q440.5 32.25 391.125 11.125Q341.75 -10 285.75 -10Z"/><path transform="translate(1391,0)" d="M401.5 0V276.5Q401.5 331.25 367.875 366.0Q334.25 400.75 280.43367346938777 400.75Q243.80867346938777 400.75 215.77933673469389 384.875Q187.75 369 171.875 341.0Q156 313 156 276.75L118.5 297.75Q118.5 352 142.875 394.125Q167.25 436.25 209.9219543147208 460.625Q252.59390862944161 485 306.54695431472084 485Q360.5 485 402.375 458.125Q444.25 431.25 468.0 387.625Q491.75 344 491.75 294.5V0ZM65.75 0V475H156V0Z"/><path transform="translate(1939,0)" d="M257.5 -10Q198.54676258992805 -10 152.14838129496403 16.625Q105.75 43.25 79.875 90.13454653937947Q54 137.01909307875894 54 198.84486873508354V475H144.25V202.75Q144.25 163.75 157.75 135.5Q171.25 107.25 197.0 91.875Q222.75 76.5 257.74568965517244 76.5Q311 76.5 340.875 110.125Q370.75 143.75 370.75 202.75V475H461V198.75Q461 136.75 435.125 89.625Q409.25 42.5 363.3974820143885 16.25Q317.544964028777 -10 257.5 -10Z"/></g>
</svg>
